<mxfile host="Electron" modified="2024-01-05T12:13:00.855Z" agent="Mozilla/5.0 (Windows NT 10.0; Win64; x64) AppleWebKit/537.36 (KHTML, like Gecko) draw.io/22.0.3 Chrome/114.0.5735.289 Electron/25.8.4 Safari/537.36" etag="LTqqyZU42MfYLioYkIKq" version="22.0.3" type="device">
  <diagram name="Page-1" id="UTtUQ1hvUMZHIFMMUZTE">
    <mxGraphModel dx="305" dy="328" grid="1" gridSize="10" guides="1" tooltips="1" connect="1" arrows="1" fold="1" page="1" pageScale="1" pageWidth="827" pageHeight="1169" math="0" shadow="0">
      <root>
        <mxCell id="0" />
        <mxCell id="1" parent="0" />
        <mxCell id="mrdE-zKFODgvfD6F8jbk-1" value="" style="rounded=0;whiteSpace=wrap;html=1;" vertex="1" parent="1">
          <mxGeometry x="200" y="280" width="361" height="120" as="geometry" />
        </mxCell>
        <mxCell id="mrdE-zKFODgvfD6F8jbk-2" value="ManipulationButtonGroup" style="text;html=1;strokeColor=none;fillColor=none;align=left;verticalAlign=middle;whiteSpace=wrap;rounded=0;" vertex="1" parent="1">
          <mxGeometry x="200" y="260" width="360" height="20" as="geometry" />
        </mxCell>
        <mxCell id="mrdE-zKFODgvfD6F8jbk-3" value="&lt;font style=&quot;font-size: 48px;&quot;&gt;Label&lt;/font&gt;" style="text;html=1;align=center;verticalAlign=middle;whiteSpace=wrap;rounded=0;" vertex="1" parent="1">
          <mxGeometry x="200" y="280" width="160" height="120" as="geometry" />
        </mxCell>
        <mxCell id="mrdE-zKFODgvfD6F8jbk-9" value="&lt;font style=&quot;font-size: 48px;&quot;&gt;-&lt;/font&gt;" style="whiteSpace=wrap;html=1;aspect=fixed;fillColor=#f8cecc;strokeColor=#b85450;" vertex="1" parent="1">
          <mxGeometry x="350" y="290" width="100" height="100" as="geometry" />
        </mxCell>
        <mxCell id="mrdE-zKFODgvfD6F8jbk-10" value="&lt;font style=&quot;font-size: 48px;&quot;&gt;+&lt;/font&gt;" style="whiteSpace=wrap;html=1;aspect=fixed;fillColor=#d5e8d4;strokeColor=#82b366;" vertex="1" parent="1">
          <mxGeometry x="452" y="290" width="100" height="100" as="geometry" />
        </mxCell>
      </root>
    </mxGraphModel>
  </diagram>
</mxfile>
